# xmcd CD database file
# Copyright (C) 1993-1998 Ti Kan
#
# Track frame offsets:
#  150
#  11800
#  23563
#  35700
#  48673
#  61945
#  74348
#  86978
#  99593
#  112310
#  125340
#  138705
#
# Disc length: 2049 seconds
#
# Revision: 1
# Processed by: cddbd v1.4b41PL1 Copyright (c) Steve Scherf et al.
# Submitted via: CDWizzard Release:4.35
#
DISCID=b307ff0c
DTITLE=Dianna Ross And The Supremes - Dianna Ross and the Supremes- Every
DTITLE=Great #1 Hit
DYEAR=1900
DGENRE=
TTITLE0=Where Did Uor Love Go
TTITLE1=Baby Love
TTITLE2=Come See About Me
TTITLE3=Stop! In The Name Of Love
TTITLE4=Back In My Arms Again
TTITLE5=I Hear A Symphony
TTITLE6=You Can't Hurry Love
TTITLE7=You Keep Me Hangin' On
TTITLE8=Love Is Here And Now You're Gone
TTITLE9=The Happening
TTITLE10=Love Child
TTITLE11=Someday We'll Be Together
EXTD=
EXTT0=
EXTT1=
EXTT2=
EXTT3=
EXTT4=
EXTT5=
EXTT6=
EXTT7=
EXTT8=
EXTT9=
EXTT10=
EXTT11=
PLAYORDER=
